<?xml version="1.0" encoding="UTF-8"?>
<svg version="1.1" viewBox="0 0 252.11 65" xml:space="preserve" xmlns="http://www.w3.org/2000/svg"><defs><clipPath id="clipPath18"><path d="M 0,29.875 H 115.876 V 0 H 0 Z"/></clipPath></defs><g transform="matrix(1.7334 0 0 -1.7334 -.00034666 65)"><g transform="matrix(1.2552,0,0,1.2552,-5.1046e-5,0)"><g clip-path="url(#clipPath18)"><g transform="translate(2.3002,12.64)"><path d="m0 0c1.268 0 2.3 1.028 2.3 2.302 0 1.272-1.032 2.295-2.3 2.295-1.271 0-2.3-1.023-2.3-2.295 0-1.274 1.029-2.302 2.3-2.302"/></g><g transform="translate(2.3002 .0077)"><path d="m0 0c1.268 0 2.3 1.027 2.3 2.296s-1.032 2.303-2.3 2.303c-1.271 0-2.3-1.034-2.3-2.303s1.029-2.296 2.3-2.296"/></g><g transform="translate(14.935,12.64)"><path d="m0 0c1.27 0 2.298 1.028 2.298 2.302 0 1.272-1.028 2.295-2.298 2.295-1.271 0-2.301-1.023-2.301-2.295 0-1.274 1.03-2.302 2.301-2.302"/></g><g transform="translate(14.935 .0077)"><path d="m0 0c1.27 0 2.298 1.027 2.298 2.296s-1.028 2.303-2.298 2.303c-1.271 0-2.301-1.034-2.301-2.303s1.03-2.296 2.301-2.296"/></g><g transform="translate(27.566,12.64)"><path d="m0 0c1.274 0 2.303 1.028 2.303 2.302 0 1.272-1.029 2.295-2.303 2.295-1.271 0-2.296-1.023-2.296-2.295 0-1.274 1.025-2.302 2.296-2.302"/></g><g transform="translate(2.3002,25.276)"><path d="m0 0c1.268 0 2.3 1.029 2.3 2.299 0 1.272-1.032 2.298-2.3 2.298-1.271 0-2.3-1.026-2.3-2.298 0-1.27 1.029-2.299 2.3-2.299"/></g><g transform="translate(14.935,25.276)"><path d="m0 0c1.27 0 2.298 1.029 2.298 2.299 0 1.272-1.028 2.298-2.298 2.298-1.271 0-2.301-1.026-2.301-2.298 0-1.27 1.03-2.299 2.301-2.299"/></g><g transform="translate(27.566,25.276)"><path d="m0 0c1.274 0 2.303 1.029 2.303 2.299 0 1.272-1.029 2.298-2.303 2.298-1.271 0-2.296-1.026-2.296-2.298 0-1.27 1.025-2.299 2.296-2.299"/></g><g transform="translate(27.566 .0077)"><path d="m0 0c1.274 0 2.303 1.027 2.303 2.296s-1.029 2.303-2.303 2.303c-1.271 0-2.296-1.034-2.296-2.303s1.025-2.296 2.296-2.296"/></g><g transform="translate(40.203,12.64)"><path d="m0 0c1.269 0 2.3 1.028 2.3 2.302 0 1.272-1.031 2.295-2.3 2.295-1.271 0-2.298-1.023-2.298-2.295 0-1.274 1.027-2.302 2.298-2.302"/></g><g transform="translate(40.203 .0077)"><path d="m0 0c1.269 0 2.3 1.027 2.3 2.296s-1.031 2.303-2.3 2.303c-1.271 0-2.298-1.034-2.298-2.303s1.027-2.296 2.298-2.296"/></g><g transform="translate(40.203,25.276)"><path d="m0 0c1.269 0 2.3 1.029 2.3 2.302 0 1.265-1.031 2.297-2.3 2.297-1.271 0-2.298-1.032-2.298-2.297 0-1.273 1.027-2.302 2.298-2.302"/></g><g transform="translate(55.663,10.829)"><path d="m0 0c0 0.085 0.051 0.136 0.136 0.136h4.76c0.119 0 0.187 0.068 0.187 0.187v1.071c0 0.119-0.068 0.17-0.187 0.17h-6.426c-0.119 0-0.17-0.051-0.17-0.17v-11.934c0-0.119 0.051-0.17 0.17-0.17h1.377c0.102 0 0.153 0.051 0.153 0.17v5.253h3.808c0.119 0 0.187 0.051 0.187 0.17v1.088c0 0.119-0.068 0.17-0.187 0.17h-3.808zm18.258-10.132c0.085 0.085 0.102 0.17 0.051 0.272l-0.527 0.969c-0.051 0.085-0.119 0.102-0.221 0.051-0.765-0.408-1.309-0.527-2.159-0.527-1.938 0-3.315 1.513-3.315 4.811 0 3.247 1.411 4.777 3.315 4.777 0.952 0 1.411-0.153 2.142-0.51 0.085-0.051 0.187-0.051 0.238 0.068l0.51 0.935c0.051 0.119 0.051 0.221-0.034 0.289-0.952 0.527-1.802 0.68-2.958 0.68-3.468 0-5.015-2.567-5.015-6.239 0-3.723 1.547-6.273 5.015-6.273 1.173 0 1.972 0.153 2.958 0.697m12.393 4.845c0.085 0 0.136-0.051 0.136-0.136v-5.117c0-0.119 0.051-0.17 0.17-0.17h1.36c0.119 0 0.17 0.051 0.17 0.17v11.934c0 0.119-0.051 0.17-0.17 0.17h-1.36c-0.119 0-0.17-0.051-0.17-0.17v-5.117c0-0.085-0.051-0.136-0.136-0.136h-4.692c-0.085 0-0.136 0.051-0.136 0.136v5.117c0 0.119-0.051 0.17-0.153 0.17h-1.377c-0.119 0-0.17-0.051-0.17-0.17v-11.934c0-0.119 0.051-0.17 0.17-0.17h1.377c0.102 0 0.153 0.051 0.153 0.17v5.117c0 0.085 0.051 0.136 0.136 0.136zm12.12-0.306c2.704 0 4.114 1.156 4.114 3.604s-1.41 3.553-4.08 3.553h-3.519c-0.119 0-0.169-0.051-0.169-0.17v-11.934c0-0.119 0.05-0.17 0.169-0.17h1.377c0.103 0 0.153 0.051 0.153 0.17v4.947zm-1.955 5.593c0 0.085 0.052 0.136 0.136 0.136h1.735c1.581 0 2.396-0.561 2.396-2.142 0-1.564-0.782-2.159-2.396-2.159h-1.871zm15.98-10.71c0.119 0 0.17 0.051 0.17 0.17v10.54c0 0.085 0.034 0.136 0.119 0.136h2.958c0.119 0 0.17 0.068 0.17 0.187v1.071c0 0.119-0.051 0.17-0.17 0.17h-7.854c-0.119 0-0.17-0.051-0.17-0.17v-1.071c0-0.119 0.051-0.187 0.17-0.187h2.941c0.085 0 0.136-0.051 0.136-0.136v-10.54c0-0.119 0.051-0.17 0.153-0.17z"/></g><g transform="translate(53.572,18.014)"><path d="m0 0c1.156-0.595 2.261-0.714 3.672-0.714 2.618 0 4.301 1.31 4.301 3.69 0 1.733-0.816 2.788-2.941 3.688-1.819 0.732-2.074 1.055-2.074 1.734 0 0.698 0.476 1.173 1.564 1.173 0.799 0 1.479-0.135 2.142-0.408 0.153-0.067 0.255 0 0.306 0.119l0.799 1.565c0.051 0.119 0.051 0.237-0.102 0.289-1.241 0.544-1.955 0.663-3.604 0.663-2.533 0-4.029-1.48-4.029-3.469 0-1.818 0.918-2.94 3.043-3.842 1.649-0.73 1.989-1.088 1.989-1.785 0-0.748-0.612-1.189-1.632-1.189-1.173 0-1.768 0.237-2.482 0.56-0.136 0.051-0.238 0-0.289-0.119l-0.765-1.751c-0.034-0.067 0-0.136 0.102-0.204m18.819-0.595c0.153 0 0.221 0.069 0.221 0.221v9.741c0 0.085 0.034 0.137 0.119 0.137h2.89c0.136 0 0.204 0.067 0.204 0.221v1.733c0 0.153-0.068 0.222-0.204 0.222h-8.67c-0.153 0-0.221-0.069-0.221-0.222v-1.733c0-0.154 0.068-0.221 0.221-0.221h2.839c0.085 0 0.136-0.052 0.136-0.137v-9.741c0-0.152 0.068-0.221 0.187-0.221zm18.496 12.053c0 0.153-0.068 0.222-0.187 0.222h-2.295c-0.136 0-0.204-0.069-0.204-0.222v-8.193c0-1.207-0.663-1.802-2.006-1.802-1.326 0-1.989 0.595-1.989 1.802v8.193c0 0.153-0.068 0.222-0.187 0.222h-2.278c-0.153 0-0.221-0.069-0.221-0.222v-8.262c0-2.396 1.343-3.91 4.675-3.91 3.349 0 4.692 1.514 4.692 3.91z"/></g></g></g></g></svg>
